<svg width="76" height="12" viewBox="0 0 76 12" fill="none" xmlns="http://www.w3.org/2000/svg">
<path d="M3.228 1.27C4.264 1.27 5.16933 1.47067 5.944 1.872C6.728 2.264 7.33 2.83333 7.75 3.58C8.17933 4.31733 8.394 5.18067 8.394 6.17C8.394 7.15933 8.17933 8.018 7.75 8.746C7.33 9.474 6.728 10.034 5.944 10.426C5.16933 10.8087 4.264 11 3.228 11H0.05V1.27H3.228ZM3.228 9.698C4.36667 9.698 5.23933 9.39 5.846 8.774C6.45267 8.158 6.756 7.29 6.756 6.17C6.756 5.04067 6.45267 4.15867 5.846 3.524C5.23933 2.88933 4.36667 2.572 3.228 2.572H1.646V9.698H3.228ZM9.30378 7.108C9.30378 6.33333 9.46245 5.64733 9.77978 5.05C10.1064 4.45267 10.5451 3.99067 11.0958 3.664C11.6558 3.328 12.2718 3.16 12.9438 3.16C13.5504 3.16 14.0778 3.28133 14.5258 3.524C14.9831 3.75733 15.3471 4.05133 15.6178 4.406V3.286H17.2278V11H15.6178V9.852C15.3471 10.216 14.9784 10.5193 14.5118 10.762C14.0451 11.0047 13.5131 11.126 12.9158 11.126C12.2531 11.126 11.6464 10.958 11.0958 10.622C10.5451 10.2767 10.1064 9.80067 9.77978 9.194C9.46245 8.578 9.30378 7.88267 9.30378 7.108ZM15.6178 7.136C15.6178 6.604 15.5058 6.142 15.2818 5.75C15.0671 5.358 14.7824 5.05933 14.4278 4.854C14.0731 4.64867 13.6904 4.546 13.2798 4.546C12.8691 4.546 12.4864 4.64867 12.1318 4.854C11.7771 5.05 11.4878 5.344 11.2638 5.736C11.0491 6.11867 10.9418 6.576 10.9418 7.108C10.9418 7.64 11.0491 8.10667 11.2638 8.508C11.4878 8.90933 11.7771 9.21733 12.1318 9.432C12.4958 9.63733 12.8784 9.74 13.2798 9.74C13.6904 9.74 14.0731 9.63733 14.4278 9.432C14.7824 9.22667 15.0671 8.928 15.2818 8.536C15.5058 8.13467 15.6178 7.668 15.6178 7.136ZM21.9841 11.126C21.3774 11.126 20.8314 11.0187 20.3461 10.804C19.8701 10.58 19.4921 10.2813 19.2121 9.908C18.9321 9.52533 18.7827 9.10067 18.7641 8.634H20.4161C20.4441 8.96067 20.5981 9.236 20.8781 9.46C21.1674 9.67467 21.5267 9.782 21.9561 9.782C22.4041 9.782 22.7494 9.698 22.9921 9.53C23.2441 9.35267 23.3701 9.12867 23.3701 8.858C23.3701 8.56867 23.2301 8.354 22.9501 8.214C22.6794 8.074 22.2454 7.92 21.6481 7.752C21.0694 7.59333 20.5981 7.43933 20.2341 7.29C19.8701 7.14067 19.5527 6.912 19.2821 6.604C19.0207 6.296 18.8901 5.89 18.8901 5.386C18.8901 4.97533 19.0114 4.602 19.2541 4.266C19.4967 3.92067 19.8421 3.65 20.2901 3.454C20.7474 3.258 21.2701 3.16 21.8581 3.16C22.7354 3.16 23.4401 3.384 23.9721 3.832C24.5134 4.27067 24.8027 4.87267 24.8401 5.638H23.2441C23.2161 5.29267 23.0761 5.01733 22.8241 4.812C22.5721 4.60667 22.2314 4.504 21.8021 4.504C21.3821 4.504 21.0601 4.58333 20.8361 4.742C20.6121 4.90067 20.5001 5.11067 20.5001 5.372C20.5001 5.57733 20.5747 5.75 20.7241 5.89C20.8734 6.03 21.0554 6.142 21.2701 6.226C21.4847 6.30067 21.8021 6.39867 22.2221 6.52C22.7821 6.66933 23.2394 6.82333 23.5941 6.982C23.9581 7.13133 24.2707 7.35533 24.5321 7.654C24.7934 7.95267 24.9287 8.34933 24.9381 8.844C24.9381 9.28267 24.8167 9.67467 24.5741 10.02C24.3314 10.3653 23.9861 10.636 23.5381 10.832C23.0994 11.028 22.5814 11.126 21.9841 11.126ZM30.5126 3.16C31.1006 3.16 31.6232 3.286 32.0806 3.538C32.5472 3.79 32.9112 4.16333 33.1726 4.658C33.4432 5.15267 33.5786 5.75 33.5786 6.45V11H31.9966V6.688C31.9966 5.99733 31.8239 5.47 31.4786 5.106C31.1332 4.73267 30.6619 4.546 30.0646 4.546C29.4672 4.546 28.9912 4.73267 28.6366 5.106C28.2912 5.47 28.1186 5.99733 28.1186 6.688V11H26.5226V0.64H28.1186V4.182C28.3892 3.85533 28.7299 3.60333 29.1406 3.426C29.5606 3.24867 30.0179 3.16 30.5126 3.16ZM37.0704 4.434C37.341 4.06067 37.7097 3.75733 38.1764 3.524C38.6524 3.28133 39.1797 3.16 39.7584 3.16C40.4397 3.16 41.0557 3.32333 41.6064 3.65C42.157 3.97667 42.591 4.44333 42.9084 5.05C43.2257 5.64733 43.3844 6.33333 43.3844 7.108C43.3844 7.88267 43.2257 8.578 42.9084 9.194C42.591 9.80067 42.1524 10.2767 41.5924 10.622C41.0417 10.958 40.4304 11.126 39.7584 11.126C39.161 11.126 38.629 11.0093 38.1624 10.776C37.705 10.5427 37.341 10.244 37.0704 9.88V11H35.4744V0.64H37.0704V4.434ZM41.7604 7.108C41.7604 6.576 41.6484 6.11867 41.4244 5.736C41.2097 5.344 40.9204 5.05 40.5564 4.854C40.2017 4.64867 39.819 4.546 39.4084 4.546C39.007 4.546 38.6244 4.64867 38.2604 4.854C37.9057 5.05933 37.6164 5.358 37.3924 5.75C37.1777 6.142 37.0704 6.604 37.0704 7.136C37.0704 7.668 37.1777 8.13467 37.3924 8.536C37.6164 8.928 37.9057 9.22667 38.2604 9.432C38.6244 9.63733 39.007 9.74 39.4084 9.74C39.819 9.74 40.2017 9.63733 40.5564 9.432C40.9204 9.21733 41.2097 8.90933 41.4244 8.508C41.6484 8.10667 41.7604 7.64 41.7604 7.108ZM48.1687 11.126C47.4407 11.126 46.7827 10.9627 46.1947 10.636C45.6067 10.3 45.1447 9.83333 44.8087 9.236C44.4727 8.62933 44.3047 7.92933 44.3047 7.136C44.3047 6.352 44.4773 5.65667 44.8227 5.05C45.168 4.44333 45.6393 3.97667 46.2367 3.65C46.834 3.32333 47.5013 3.16 48.2387 3.16C48.976 3.16 49.6433 3.32333 50.2407 3.65C50.838 3.97667 51.3093 4.44333 51.6547 5.05C52 5.65667 52.1727 6.352 52.1727 7.136C52.1727 7.92 51.9953 8.61533 51.6407 9.222C51.286 9.82867 50.8007 10.3 50.1847 10.636C49.578 10.9627 48.906 11.126 48.1687 11.126ZM48.1687 9.74C48.5793 9.74 48.962 9.642 49.3167 9.446C49.6807 9.25 49.9747 8.956 50.1987 8.564C50.4227 8.172 50.5347 7.696 50.5347 7.136C50.5347 6.576 50.4273 6.10467 50.2127 5.722C49.998 5.33 49.7133 5.036 49.3587 4.84C49.004 4.644 48.6213 4.546 48.2107 4.546C47.8 4.546 47.4173 4.644 47.0627 4.84C46.7173 5.036 46.442 5.33 46.2367 5.722C46.0313 6.10467 45.9287 6.576 45.9287 7.136C45.9287 7.96667 46.1387 8.61067 46.5587 9.068C46.988 9.516 47.5247 9.74 48.1687 9.74ZM53.0784 7.108C53.0784 6.33333 53.2371 5.64733 53.5544 5.05C53.8811 4.45267 54.3197 3.99067 54.8704 3.664C55.4304 3.328 56.0464 3.16 56.7184 3.16C57.3251 3.16 57.8524 3.28133 58.3004 3.524C58.7577 3.75733 59.1217 4.05133 59.3924 4.406V3.286H61.0024V11H59.3924V9.852C59.1217 10.216 58.7531 10.5193 58.2864 10.762C57.8197 11.0047 57.2877 11.126 56.6904 11.126C56.0277 11.126 55.4211 10.958 54.8704 10.622C54.3197 10.2767 53.8811 9.80067 53.5544 9.194C53.2371 8.578 53.0784 7.88267 53.0784 7.108ZM59.3924 7.136C59.3924 6.604 59.2804 6.142 59.0564 5.75C58.8417 5.358 58.5571 5.05933 58.2024 4.854C57.8477 4.64867 57.4651 4.546 57.0544 4.546C56.6437 4.546 56.2611 4.64867 55.9064 4.854C55.5517 5.05 55.2624 5.344 55.0384 5.736C54.8237 6.11867 54.7164 6.576 54.7164 7.108C54.7164 7.64 54.8237 8.10667 55.0384 8.508C55.2624 8.90933 55.5517 9.21733 55.9064 9.432C56.2704 9.63733 56.6531 9.74 57.0544 9.74C57.4651 9.74 57.8477 9.63733 58.2024 9.432C58.5571 9.22667 58.8417 8.928 59.0564 8.536C59.2804 8.13467 59.3924 7.668 59.3924 7.136ZM64.5547 4.406C64.788 4.014 65.096 3.71067 65.4787 3.496C65.8707 3.272 66.3327 3.16 66.8647 3.16V4.812H66.4587C65.8333 4.812 65.3573 4.97067 65.0307 5.288C64.7133 5.60533 64.5547 6.156 64.5547 6.94V11H62.9587V3.286H64.5547V4.406ZM67.6597 7.108C67.6597 6.33333 67.8184 5.64733 68.1357 5.05C68.4624 4.45267 68.901 3.99067 69.4517 3.664C70.0117 3.328 70.6324 3.16 71.3137 3.16C71.8177 3.16 72.3124 3.272 72.7977 3.496C73.2924 3.71067 73.6844 4 73.9737 4.364V0.64H75.5837V11H73.9737V9.838C73.7124 10.2113 73.3484 10.5193 72.8817 10.762C72.4244 11.0047 71.897 11.126 71.2997 11.126C70.6277 11.126 70.0117 10.958 69.4517 10.622C68.901 10.2767 68.4624 9.80067 68.1357 9.194C67.8184 8.578 67.6597 7.88267 67.6597 7.108ZM73.9737 7.136C73.9737 6.604 73.8617 6.142 73.6377 5.75C73.423 5.358 73.1384 5.05933 72.7837 4.854C72.429 4.64867 72.0464 4.546 71.6357 4.546C71.225 4.546 70.8424 4.64867 70.4877 4.854C70.133 5.05 69.8437 5.344 69.6197 5.736C69.405 6.11867 69.2977 6.576 69.2977 7.108C69.2977 7.64 69.405 8.10667 69.6197 8.508C69.8437 8.90933 70.133 9.21733 70.4877 9.432C70.8517 9.63733 71.2344 9.74 71.6357 9.74C72.0464 9.74 72.429 9.63733 72.7837 9.432C73.1384 9.22667 73.423 8.928 73.6377 8.536C73.8617 8.13467 73.9737 7.668 73.9737 7.136Z" fill="#9197B3"/>
</svg>
